<svg xmlns="http://www.w3.org/2000/svg" viewBox="0 0 24 24">
  <defs>
    <linearGradient id="csg" x1="0" y1="0" x2="1" y2="1">
      <stop offset="0" stop-color="#6366f1"/>
      <stop offset=".58" stop-color="#8b5cf6"/>
      <stop offset="1" stop-color="#a855f7"/>
    </linearGradient>
  </defs>
  <rect width="24" height="24" rx="6" fill="url(#csg)"/>
  <path d="M7 5.5h10a3 3 0 0 1 3 3v4a3 3 0 0 1-3 3h-4.8l-3.4 2.6c-.6.45-1.3.02-1.3-.72V15.5H7a3 3 0 0 1-3-3v-4a3 3 0 0 1 3-3z" fill="#fff"/>
  <path d="M11.8 7.6c.15 1.75.7 2.3 2.45 2.45-1.75.15-2.3.7-2.45 2.45-.15-1.75-.7-2.3-2.45-2.45 1.75-.15 2.3-.7 2.45-2.45z" fill="#7c6df6"/>
</svg>
